####
#
# OBJ File Generated by Meshlab
#
####
# Object plane.obj
#
# Vertices: 4
# Faces: 2
#
####
mtllib ./plane.obj.mtl

vn 0.000000 -1.570796 0.000000
v -1.000000 1.000000 -1.000000 0.752941 0.752941 0.752941
vn 0.000000 -1.570796 0.000000
v 1.000000 1.000000 -1.000000 0.752941 0.752941 0.752941
vn 0.000000 -1.570796 0.000000
v 1.000000 1.000000 1.000000 0.752941 0.752941 0.752941
vn 0.000000 -1.570796 0.000000
v -1.000000 1.000000 1.000000 0.752941 0.752941 0.752941
# 4 vertices, 0 vertices normals

usemtl material_0
vt 0.997642 0.999023
vt 0.000977 0.999023
vt 0.000977 0.002358
f 1/1/1 2/2/2 3/3/3
vt 0.999023 0.997642
vt 0.002358 0.000977
vt 0.999023 0.000977
f 1/4/1 3/5/3 4/6/4
# 2 faces, 6 coords texture

# End of File
